<svg xmlns="http://www.w3.org/2000/svg" width="300" height="299.996" viewBox="0 0 300 299.996"><path fill="#320064" d="M0 149.999v.001c0 47.926 22.478 90.603 57.466 118.062v-118.063h-57.466z"/><path d="M150 0c-34.925 0-67.041 11.962-92.534 31.978v.348c13.21-9.138 29.217-14.509 46.46-14.509h.003v132.182h-46.463v118.063c25.49 20.005 57.618 31.934 92.534 31.934 30.74 0 59.31-9.259 83.1-25.124v-249.72499999999997c-23.791-15.869-52.355-25.147-83.1-25.147z"/><path fill="#FF5557" d="M45.731 42.183c-28.194 27.271-45.731 65.492-45.731 107.816h39.393c-10.854-13.892-17.347-31.351-17.347-50.304 0-22.402 9.055-42.717 23.685-57.512z"/><path d="M45.731 42.183c1.989-1.925 4.033-3.795 6.126-5.609-2.136 1.765-4.178 3.639-6.126 5.609zM103.926 17.816c-17.243 0-33.25 5.371-46.46 14.509v-.39c-1.909 1.499-3.774 3.051-5.609 4.639-2.094 1.813-4.138 3.684-6.126 5.609-14.63 14.795-23.685 35.11-23.685 57.511 0 18.954 6.493 36.412 17.347 50.304h64.536v-132.182h-.003z"/><path fill="#FF5557" d="M168.463 149.999c10.854-13.892 17.347-31.351 17.347-50.304 0-45.146-36.734-81.878-81.88-81.878v132.182h64.533z"/><path d="M103.929 149.999v132.179c45.146 0 81.88-36.728 81.88-81.881 0-18.951-6.492-36.407-17.347-50.298h-64.533z"/><path fill="#320064" d="M39.393 149.999c-10.854 13.891-17.347 31.347-17.347 50.298 0 45.153 36.731 81.881 81.88 81.881h.003v-132.179h-64.536z"/><path fill="#ff0" d="M233.1 93.337v58.668h66.876c.008-.668.024-1.334.024-2.005 0-25.782-6.507-50.043-17.964-71.234h-48.936v14.571z"/><path fill="#FF5557" d="M233.1 206.659v18.587h46.683c12.539-21.578 19.843-46.568 20.193-73.24h-66.876v54.653z"/><path fill="#7AC943" d="M282.036 78.766c-11.698-21.639-28.562-40.07-48.937-53.654v53.654h48.937z"/><path fill="#320064" d="M233.1 274.884c19.102-12.735 35.116-29.733 46.683-49.639h-46.683v49.639z"/><path d="M57.461 268.056c-1.045-.819-2.078-1.655-3.1-2.503 1.022.848 2.055 1.684 3.1 2.503zM53.617 264.924c-.752-.631-1.501-1.268-2.241-1.913.74.646 1.488 1.282 2.241 1.913z"/><path fill="#320064" d="M54.361 265.553l-.744-.629.744.629zM51.376 263.011l-.996-.883.996.883zM57.466 268.062l-.005-.006z"/><path fill="#666" d="M233.1 93.337v-68.22500000000001c-13.368-8.913-28.248-15.732-44.174-20v88.226h44.174z"/><path d="M233.1 152.005v-58.668h-44.174v113.322h44.174z"/><path fill="#ccc" d="M233.1 206.659h-44.174v88.227c15.926-4.269 30.806-11.088 44.174-20.001v-68.226z"/><g fill="#fff"><path d="M197.573 41.851c-24.312 6.1-47.956 52.188-47.956 108.15s23.643 102.044 47.956 108.144v-216.294zM211.08 42.198v215.598c27.015-7.315 46.592-52.771 46.592-107.794 0-55.03-19.577-100.487-46.592-107.804z"/></g><path fill="#fff" d="M161.778 99.694c0 31.95-25.904 57.847-57.852 57.847-31.942 0-57.844-25.897-57.844-57.847 0-31.948 25.902-57.843 57.844-57.843 31.948 0 57.852 25.896 57.852 57.843zM161.778 200.296c0 31.951-25.904 57.849-57.852 57.849-31.942 0-57.844-25.897-57.844-57.849 0-31.942 25.902-57.841 57.844-57.841 31.948.001 57.852 25.899 57.852 57.841z"/><path fill="#320064" d="M103.929 223.137c-12.594 0-22.839-10.247-22.839-22.837 0-12.594 10.246-22.837 22.839-22.837 12.592 0 22.841 10.243 22.841 22.837 0 12.59-10.249 22.837-22.841 22.837z"/><path fill="#FF5557" d="M103.929 122.534c-12.594 0-22.839-10.244-22.839-22.838 0-12.59 10.246-22.837 22.839-22.837 12.592 0 22.841 10.247 22.841 22.837 0 12.594-10.249 22.838-22.841 22.838z"/></svg>