<svg xmlns="http://www.w3.org/2000/svg" width="200" height="199.997" viewBox="0 0 200 199.997"><path fill="#320064" d="M.008 99.999c0 31.952 14.985 60.402 38.311 78.709v-78.709h-38.311z"/><path d="M100.008 0c-23.283 0-44.694 7.975-61.689 21.318v.232c8.807-6.092 19.478-9.672 30.973-9.672h.002v88.122h-30.975v78.709c16.993 13.336 38.412 21.289 61.689 21.289 20.493 0 39.54-6.173 55.399-16.749v-166.484c-15.86-10.579-34.902-16.765-55.399-16.765z"/><path fill="#FF5557" d="M30.496 28.122c-18.796 18.181-30.488 43.661-30.488 71.877h26.262c-7.235-9.261-11.564-20.9-11.564-33.536 0-14.934 6.036-28.478 15.79-38.341z"/><path d="M30.496 28.122c1.326-1.283 2.688-2.53 4.084-3.74-1.424 1.178-2.786 2.427-4.084 3.74zM69.292 11.877c-11.495 0-22.167 3.581-30.973 9.672v-.26c-1.273.999-2.516 2.034-3.74 3.092-1.396 1.209-2.758 2.457-4.084 3.74-9.754 9.863-15.79 23.407-15.79 38.341 0 12.636 4.329 24.275 11.564 33.536h43.024v-88.121h-.001z"/><path fill="#FF5557" d="M112.317 99.999c7.236-9.261 11.564-20.9 11.564-33.536 0-30.098-24.489-54.585-54.587-54.585v88.122h43.023z"/><path d="M69.294 99.999v88.119c30.098 0 54.587-24.485 54.587-54.588 0-12.634-4.328-24.271-11.564-33.531h-43.023z"/><path fill="#320064" d="M26.27 99.999c-7.235 9.261-11.564 20.897-11.564 33.531 0 30.103 24.487 54.588 54.587 54.588h.002v-88.119h-43.025zM187.833 52.51c-7.799-14.426-18.824-26.713-32.824-35.769v84.68199999999999h44.983c.006-1-.083-.934-.083-1.38 0-17.188-4.438-33.405-12.076-47.533z"/><path fill="#FF5557" d="M155.008 101.424v81.833c13-8.49 23.611-19.779 31.322-33.049 8.359-14.385 13.428-30.783 13.661-48.783h-44.983z"/><path d="M38.315 178.704c-.697-.546-1.385-1.104-2.067-1.669.682.566 1.371 1.123 2.067 1.669zM35.752 176.616c-.501-.421-1-.846-1.494-1.275.494.43.993.854 1.494 1.275z"/><path fill="#320064" d="M36.249 177.035l-.496-.419.496.419zM34.259 175.341l-.664-.589.664.589zM38.319 178.708l-.004-.004z"/><path fill="#666" d="M155.408 62.225v-45.483999999999995c-8.912-5.942-18.832-10.488-29.449-13.334v58.817h29.449z"/><path d="M155.408 101.337v-39.112h-29.45v75.547h29.45z"/><path fill="#ccc" d="M155.408 137.772h-29.449v58.817c10.617-2.846 20.537-7.392 29.449-13.334v-45.483z"/><g fill="#fff"><path d="M131.723 27.9c-16.208 4.067-31.97 34.792-31.97 72.101s15.762 68.028 31.97 72.096v-144.197zM140.728 28.131v143.732c18.011-4.877 31.062-35.18 31.062-71.862 0-36.686-13.051-66.991-31.062-71.87z"/></g><path fill="#fff" d="M107.86 66.463c0 21.3-17.269 38.564-38.567 38.564-21.294 0-38.563-17.265-38.563-38.564s17.269-38.562 38.563-38.562c21.298-.001 38.567 17.263 38.567 38.562zM107.86 133.53c0 21.302-17.269 38.566-38.567 38.566-21.294 0-38.563-17.265-38.563-38.566 0-21.294 17.269-38.56 38.563-38.56 21.298 0 38.567 17.266 38.567 38.56z"/><path fill="#320064" d="M69.294 148.758c-8.396 0-15.226-6.831-15.226-15.225 0-8.396 6.83-15.225 15.226-15.225 8.395 0 15.227 6.829 15.227 15.225 0 8.394-6.832 15.225-15.227 15.225z"/><path fill="#FF5557" d="M69.294 81.689c-8.396 0-15.226-6.83-15.226-15.225 0-8.393 6.83-15.225 15.226-15.225 8.395 0 15.227 6.832 15.227 15.225 0 8.395-6.832 15.225-15.227 15.225z"/></svg>