<svg xmlns="http://www.w3.org/2000/svg" width="300" height="40.688" viewBox="0 0 300 40.688"><g fill="#1C2126"><path d="M0 29.03c0-5.127 3.601-8.238 8.544-9.029-4.274-1.098-7.507-4.334-7.507-9.156 0-1.768.427-3.233 1.098-4.514 2.502-4.821 8.665-6.287 13.548-6.287 4.822 0 10.923 1.528 13.365 6.287.671 1.28 1.159 2.746 1.159 4.514 0 5.067-3.051 7.997-7.566 9.095 5.064.73 8.604 4.21 8.604 9.153 0 8.909-8.178 11.595-15.684 11.595-7.261-.062-15.561-2.563-15.561-11.658zm1.831.123c0 7.445 7.993 9.888 13.792 9.888 5.736 0 13.79-2.199 13.79-9.888 0-6.958-6.955-8.361-13.79-8.361-6.897 0-13.792 1.345-13.792 8.361zm26.544-18.184c0-.732-.06-1.465-.304-2.195-2.747-9.279-22.153-9.279-24.898 0-.306.73-.366 1.463-.366 2.195 0 6.651 6.163 8.359 12.753 8.359s12.815-1.708 12.815-8.359zM62.549 14.812v10.986c.122 19.16-28.132 19.16-27.949 0v-10.986c-.183-19.16 28.07-19.16 27.949 0zm-26.058 0v10.986c-.121 16.659 24.227 16.659 24.105 0v-10.986c.122-16.656-24.226-16.656-24.105 0zM107.096 1.266c.67-1.037 2.013-.731 2.013.487v36.919c0 1.406-2.075 1.466-2.075 0v-33.623l-15.744 24.717c-.489.912-1.648.912-2.136 0l-15.745-24.596v33.502c0 1.466-2.075 1.406-2.075 0v-36.92c0-1.218 1.344-1.524 1.954-.487l16.965 26.426 16.843-26.425zM114.294 19.574c.305-9.459 6.162-17.821 15.744-19.345 2.136-.304 4.454-.304 6.589 0 9.642 1.524 16.235 9.886 16.478 19.345.364 11.777-8.788 20.809-19.405 20.809-10.557 0-19.711-9.032-19.406-20.809zm2.075.059c-.305 10.496 7.871 18.858 17.331 18.858 9.519 0 17.696-8.362 17.391-18.858-.244-8.542-6.104-16.109-14.769-17.452-1.954-.306-4.026-.306-5.98 0-8.603 1.343-13.729 8.91-13.973 17.452zM186.363 1.693c0-1.526 2.072-1.526 2.072 0v36.735c0 1.466-1.342 1.466-2.134.489l-26.545-34.6v34.233c0 1.467-2.015 1.467-2.015 0v-36.675c0-1.524 1.282-1.708 2.136-.61l26.486 34.601v-34.173zM223.646.657c1.04-.916 2.563.487 1.586 1.402l-18.186 16.11 19.225 20.076c1.1.976-.55 2.32-1.464 1.345l-19.223-20.138-8.118 7.2v12.267c0 .549-.427.977-1.037.977-.548 0-1.036-.428-1.036-.977v-37.47c0-.55.488-1.035 1.036-1.035.61 0 1.037.485 1.037 1.035v22.821l26.18-23.613zM232.069 37.696h26.971c1.281 0 1.281 1.954 0 1.954h-27.339c-.976 0-1.646-.732-1.646-1.648v-35.576c0-.854.671-1.586 1.646-1.586h27.401c1.219 0 1.219 1.83-.062 1.83h-26.971v16.842h25.75c1.283 0 1.283 1.829 0 1.829h-25.75v16.355zM281.191 23.845l-16.414-21.846c-1.04-1.221.427-2.442 1.523-1.221l15.928 21.359 15.868-21.359c1.096-1.221 2.621 0 1.525 1.221l-16.356 21.846v14.89c0 .794-.55 1.16-1.037 1.16-.55 0-1.037-.366-1.037-1.16v-14.89z"/></g></svg>