<svg xmlns="http://www.w3.org/2000/svg" width="370.752" height="50.283" viewBox="0 0 370.752 50.283"><path d="M0 35.877c0-6.336 4.449-10.181 10.559-11.159-5.281-1.356-9.277-5.355-9.277-11.315 0-2.185.528-3.996 1.357-5.578 3.092-5.958 10.709-7.77 16.742-7.77 5.959 0 13.5 1.889 16.517 7.77.83 1.582 1.433 3.394 1.433 5.578 0 6.262-3.771 9.883-9.351 11.24 6.259.902 10.634 5.203 10.634 11.312 0 11.011-10.106 14.329-19.383 14.329-8.974-.077-19.231-3.167-19.231-14.407zm2.263.152c0 9.201 9.878 12.22 17.044 12.22 7.09 0 17.043-2.718 17.043-12.22 0-8.6-8.596-10.333-17.043-10.333-8.523 0-17.044 1.661-17.044 10.333zm32.804-22.473c0-.905-.074-1.811-.376-2.713-3.394-11.468-27.377-11.468-30.77 0-.377.902-.451 1.807-.451 2.713 0 8.22 7.616 10.33 15.761 10.33s15.836-2.111 15.836-10.33zm42.233 4.75v13.577c.15 23.679-34.766 23.679-34.54 0v-13.577c-.226-23.679 34.69-23.679 34.54 0zm-32.202 0v13.577c-.15 20.589 29.939 20.589 29.789 0v-13.577c.15-20.585-29.94-20.585-29.789 0zm87.255-16.742c.828-1.282 2.487-.904 2.487.602v45.626c0 1.737-2.564 1.812-2.564 0v-41.552l-19.456 30.546c-.604 1.127-2.036 1.127-2.64 0l-19.458-30.396v41.402c0 1.812-2.564 1.737-2.564 0v-45.626c0-1.506 1.661-1.884 2.414-.602l20.967 32.657 20.814-32.657zm8.896 22.626c.376-11.69 7.615-22.024 19.457-23.908 2.64-.376 5.504-.376 8.144 0 11.916 1.884 20.063 12.218 20.364 23.908.451 14.554-10.86 25.716-23.982 25.716-13.047 0-24.36-11.162-23.983-25.716zm2.564.074c-.376 12.971 9.728 23.306 21.418 23.306 11.765 0 21.87-10.335 21.493-23.306-.302-10.557-7.543-19.908-18.252-21.567-2.414-.378-4.976-.378-7.391 0-10.632 1.658-16.966 11.01-17.268 21.567zm86.502-22.171c0-1.886 2.562-1.886 2.562 0v45.399c0 1.812-1.658 1.812-2.638.604l-32.806-42.761v42.308c0 1.812-2.489 1.812-2.489 0v-45.325c0-1.884 1.584-2.111 2.639-.754l32.733 42.762v-42.233zm46.076-1.281c1.285-1.132 3.169.603 1.962 1.732l-22.476 19.91 23.758 24.811c1.359 1.207-.679 2.869-1.809 1.663l-23.757-24.889-10.031 8.897v15.159c0 .679-.527 1.208-1.282 1.208-.678 0-1.279-.529-1.279-1.208v-46.304c0-.68.602-1.279 1.279-1.279.755 0 1.282.6 1.282 1.279v28.204l32.353-29.183zm10.409 45.774h33.333c1.584 0 1.584 2.416 0 2.416h-33.787c-1.205 0-2.035-.906-2.035-2.037v-43.967c0-1.055.83-1.96 2.035-1.96h33.863c1.508 0 1.508 2.261-.076 2.261h-33.333v20.814h31.823c1.586 0 1.586 2.262 0 2.262h-31.823v20.211zm60.708-17.117l-20.285-26.999c-1.285-1.509.527-3.018 1.884-1.509l19.683 26.396 19.61-26.396c1.354-1.509 3.24 0 1.885 1.509l-20.215 26.999v18.4c0 .981-.678 1.435-1.281 1.435-.678 0-1.281-.453-1.281-1.435v-18.4z" fill="#fff"/></svg>