<svg xmlns="http://www.w3.org/2000/svg" width="200" height="199.998" viewBox="0 0 200 199.998"><path fill="#FF5352" d="M199.885 95.392l-.07-1.282c-.073-1.208-.163-2.406-.276-3.598l-.026-.305-.072-.738c-.161-1.557-.355-3.094-.582-4.598l-.071-.417c-.216-1.373-.468-2.773-.744-4.145l-.175-.858c-2.629-12.583-7.592-24.379-14.8-35.13l-.126-.167-.161-.23c-.524-.757-1.919-2.767-3.657-5.017-19.141-24.725-47.979-38.907-79.125-38.907-31.151 0-59.99 14.185-79.122 38.916-1.802 2.328-3.24 4.406-3.713 5.088l-.282.389c-7.155 10.68-12.117 22.473-14.748 35.052l-.174.854c-.27 1.335-.52 2.727-.744 4.139l-.077.465c-.229 1.524-.424 3.061-.581 4.562l-.064.683-.033.368c-.112 1.195-.204 2.392-.275 3.602l-.015.261-.055 1.022c-.079 1.777-.117 3.238-.117 4.6 0 1.558.041 3.153.125 4.879.018.375.046.751.074 1.125l.056.784c.065.97.131 1.941.224 2.911.062.606.135 1.21.209 1.815l.047.39c.099.849.201 1.695.322 2.536.102.702.219 1.397.337 2.093l.042.249c.133.793.272 1.592.426 2.384.154.778.319 1.552.488 2.323.173.79.355 1.577.548 2.373.185.739.374 1.476.572 2.203.225.83.459 1.662.706 2.495.197.653.397 1.311.605 1.963.298.933.615 1.856.94 2.769l.105.302c.152.436.305.873.465 1.296.408 1.094.837 2.171 1.281 3.244l.167.41.258.626c.61 1.425 1.201 2.731 1.839 4.061l.061.127c4.132 8.584 9.45 16.514 15.777 23.532l.237.236.213.228c.626.673 2.29 2.457 4.296 4.401 18.771 18.213 43.481 28.242 69.577 28.242 26.095 0 50.805-10.028 69.575-28.237 2.014-1.953 3.677-3.737 4.303-4.41l.209-.223.208-.204c6.349-7.046 11.668-14.973 15.809-23.564l.098-.212c.63-1.313 1.235-2.651 1.802-3.978l.304-.74.125-.311c.441-1.063.866-2.133 1.276-3.226.153-.415.301-.832.447-1.25l.126-.355c.325-.913.638-1.83.936-2.754.21-.657.412-1.321.61-1.984.244-.818.479-1.649.701-2.473.202-.736.393-1.475.582-2.235.186-.78.365-1.563.538-2.346.172-.776.338-1.558.488-2.336.154-.787.292-1.585.424-2.366.138-.783.27-1.566.383-2.354.12-.839.223-1.686.32-2.521l.053-.426c.074-.599.148-1.197.208-1.804.094-.982.161-1.977.227-2.971l.053-.727c.027-.369.056-.739.074-1.115.082-1.741.122-3.336.122-4.876.002-1.385-.034-2.847-.113-4.608zm-136.072-64.701c-.005 2.565-2.094 4.652-4.657 4.652h-21.581c-1.138 0-1.61-.272-1.662-.304-.007-.113.144-.603.914-1.334 6.991-6.658 14.933-12.146 23.604-16.313.517-.248 1.003-.374 1.448-.374.549 0 .995.197 1.326.583.398.465.617 1.198.616 2.063l-.008 11.027zm-.018 17.668l-.009 10.942c-.006 1.598.882 3.037 2.321 3.755l21.836 10.861c.974.482 1.417 1.021 1.417 1.317 0 .297-.443.837-1.418 1.321l-22.416 11.149c-.793.338-1.452.896-1.902 1.607-.365.572-.588 1.233-.643 1.909-.048.567.092 1.224.364 2.43.194.861.414 1.836.53 2.774.147 1.177.222 2.357.222 3.508 0 12.2-8.169 23.171-19.868 26.68-.433.131-.921.197-1.452.197-2.47 0-5.511-1.467-6.925-3.339-10.609-14.04-16.217-30.737-16.217-48.287 0-7.024.913-14.01 2.714-20.761.85-3.179 2.642-7.013 3.719-8.466.693-.936 3.774-2.242 7.217-2.242h25.867c1.241 0 2.408.484 3.284 1.36.877.877 1.359 2.044 1.359 3.285zm13.023-4.646h9.155c2.309 0 4.187-1.876 4.187-4.183 0-2.309-1.878-4.187-4.187-4.187h-9.148c-1.243 0-2.41-.484-3.287-1.362-.876-.877-1.357-2.043-1.355-3.285l.013-12.879c.002-2.795 2.251-5.831 4.812-6.498 14.988-3.909 30.999-3.909 45.985 0 2.56.666 4.81 3.703 4.814 6.498l.013 12.879c0 1.242-.481 2.409-1.358 3.287s-2.044 1.361-3.286 1.361h-8.938c-2.308 0-4.187 1.878-4.187 4.187 0 2.307 1.879 4.183 4.187 4.183h8.943c2.562 0 4.65 2.086 4.654 4.647l.001 3.08c.004 2.86-2.157 6.353-4.72 7.627l-18.206 9.051c-1.265.629-3.054.99-4.909.99-1.856 0-3.646-.361-4.911-.99l-18.205-9.05c-2.564-1.276-4.727-4.769-4.722-7.628l.002-3.078c.003-2.565 2.09-4.65 4.653-4.65zm57.082 19.342c1.431-.715 2.318-2.151 2.318-3.75l-.011-10.947c-.002-1.241.48-2.408 1.356-3.285s2.043-1.36 3.284-1.36h31.271c.382.42 1.042 1.2 1.793 2.215 1.087 1.471 2.889 5.32 3.736 8.492 1.801 6.739 2.714 13.725 2.714 20.762 0 17.551-5.607 34.248-16.216 48.287-1.413 1.872-4.454 3.339-6.924 3.339-.531 0-1.02-.066-1.453-.197-11.695-3.508-19.863-14.479-19.863-26.68 0-2.382.299-4.746.891-7.027.406-1.198.246-2.545-.445-3.635-.244-.377-.55-.715-.926-1.019-.353-.278-1.055-.632-3.904-2.03-.854-.419-1.797-.882-2.763-1.362l-16.7-8.304c-.973-.484-1.416-1.024-1.416-1.321.001-.296.443-.835 1.417-1.318l21.841-10.86zm-29.712 107.242c0-.959.259-2.568 2-2.568.459 0 .968.108 1.512.321 10.397 4.084 21.323 6.154 32.473 6.154 5.094 0 10.232-.45 15.284-1.336-13.619 10.389-29.784 16.721-46.792 18.32-2.452.249-4.477-1.725-4.477-4.272v-16.619zm-20.88-7.964c-15.107 4.599-31.435 4.635-46.462.145-2.962-.892-7.25-3.844-9.176-6.319-4.891-6.276-8.937-13.14-12.021-20.386l-.269-.668c-.45-1.072-.885-2.169-1.29-3.254l-.3-.846-.174-.498c-.312-.879-.615-1.761-.9-2.652-.155-.485-.3-.973-.446-1.459l-.085-.284c-.233-.777-.455-1.556-.666-2.337-.174-.656-.343-1.313-.504-1.976l-.207-.878c-.104-.442-.208-.888-.305-1.326-.152-.697-.298-1.392-.434-2.093-.145-.736-.272-1.472-.406-2.258-.114-.684-.229-1.366-.329-2.045-.112-.783-.207-1.569-.299-2.352l-.073-.618c-.055-.459-.11-.917-.154-1.377-.082-.842-.139-1.691-.195-2.541l-.059-.821c-.026-.341-.052-.683-.068-1.037-.075-1.514-.113-3.012-.113-4.423l.002-.111c.001-1.528.04-3.044.113-4.511.014-.301.039-.599.062-.898l.055-.73c.064-.978.128-1.957.221-2.915l.104-.867.088-.721.069-.571c.095-.794.189-1.587.306-2.371l.149-.879.107-.618c.167-1.002.337-2.004.534-2.985l.174-.795.115-.516c.229-1.054.461-2.106.726-3.142l.084-.318c.404 19.419 7.005 37.729 19.153 53.058 1.478 1.87 3.065 3.717 4.719 5.491 12.997 13.926 29.64 23.156 48.154 26.702zm8.053-7.284c-15.764-1.693-30.565-7.997-42.803-18.229-.707-.591-1.073-1.176-1.004-1.604.068-.416.606-1.045 1.914-1.561 13.972-5.5 23-18.737 23-33.724 0-1.241-.062-2.484-.186-3.693-.1-.989 1.487-3.286 4.203-4.637l18.606-9.251c1.265-.628 3.055-.989 4.911-.989 1.855 0 3.646.361 4.909.988l18.604 9.252c2.717 1.351 4.305 3.648 4.204 4.641-.122 1.221-.184 2.462-.184 3.689 0 14.988 9.027 28.225 22.995 33.722 1.31.516 1.847 1.146 1.915 1.562.069.428-.297 1.013-1.003 1.604-12.242 10.232-27.043 16.537-42.803 18.229-1.258.136-2.419-.299-3.269-1.188-.764-.799-1.184-1.878-1.184-3.036v-52.126c0-2.309-1.878-4.187-4.185-4.187-2.309 0-4.187 1.878-4.187 4.187v52.126c.002 2.539-1.984 4.489-4.453 4.225zm25.332 7.284c18.511-3.546 35.154-12.775 48.151-26.704 1.667-1.788 3.255-3.636 4.716-5.488 12.15-15.328 18.753-33.638 19.156-53.06l.081.313c.269 1.046.504 2.104.736 3.175l.075.334.205.94c.202.993.37 2 .537 2.999l.112.653c.05.275.1.551.142.834.145.964.256 1.935.374 2.955l.067.537c.045.345.09.689.124 1.035.094.957.157 1.922.222 2.889l.061.827.059.843c.075 1.465.112 2.981.113 4.587 0 1.46-.036 2.959-.108 4.449-.019.353-.044.704-.07 1.054l-.044.609c-.06.916-.123 1.83-.212 2.742-.052.554-.119 1.105-.186 1.657l-.041.34c-.091.78-.187 1.563-.298 2.334-.104.708-.22 1.411-.335 2.103-.128.739-.256 1.476-.399 2.213-.136.697-.28 1.393-.437 2.099l-.279 1.216-.229.982c-.159.658-.329 1.32-.508 1.982-.208.775-.428 1.546-.661 2.32l-.077.261c-.147.497-.295.994-.461 1.502-.279.881-.581 1.754-.885 2.621l-.158.449-.329.919c-.405 1.089-.831 2.16-1.276 3.23l-.279.683c-3.088 7.259-7.132 14.12-12.02 20.393-1.932 2.479-6.22 5.432-9.175 6.317-15.03 4.492-31.359 4.453-46.464-.144zm45.736-126.99h-21.585c-2.563 0-4.65-2.086-4.652-4.65l-.011-11.029c-.001-.937.25-1.706.709-2.165.318-.319.733-.482 1.231-.482.445 0 .932.126 1.448.374 8.681 4.172 16.621 9.661 23.604 16.313.77.733.922 1.222.938 1.271-.075.096-.547.368-1.682.368zm-102.601 138.861c11.156 0 22.082-2.072 32.472-6.158.544-.213 1.054-.321 1.513-.321 1.656 0 2.003 1.398 2.003 2.57v16.621c0 2.547-2.002 4.506-4.479 4.275-17.008-1.603-33.176-7.936-46.796-18.324 5.049.887 10.19 1.337 15.287 1.337z"/></svg>