<svg xmlns="http://www.w3.org/2000/svg" width="200" height="199.998" viewBox="0 0 200 199.998"><path fill="#fff" d="M199.812 94.11c-.072-1.206-.161-2.406-.274-3.6l-.099-1.043c-.159-1.532-.351-3.058-.579-4.574l-.074-.438c-.221-1.397-.468-2.782-.747-4.161l-.172-.843c-2.604-12.466-7.569-24.347-14.751-35.056l-.112-.15c-.066-.078-1.714-2.531-3.882-5.335-18.309-23.655-46.968-38.91-79.123-38.91-32.158 0-60.819 15.258-79.122 38.916-2.168 2.801-3.819 5.254-3.882 5.333l-.113.147c-7.177 10.708-12.14 22.582-14.747 35.045l-.176.858c-.275 1.369-.523 2.748-.742 4.136l-.077.464c-.228 1.51-.421 3.036-.582 4.568l-.095 1.046c-.113 1.194-.206 2.394-.276 3.597l-.07 1.288c-.069 1.526-.117 3.058-.117 4.602 0 1.635.045 3.261.125 4.878.03.617.086 1.228.125 1.842.067.993.133 1.986.228 2.971.073.742.169 1.479.257 2.218.1.85.2 1.695.323 2.535.113.783.247 1.563.379 2.343.135.793.272 1.589.426 2.375.153.78.318 1.555.489 2.328.172.793.354 1.582.545 2.365.185.739.375 1.476.573 2.209.226.833.46 1.664.705 2.491.199.657.399 1.315.608 1.971.297.93.614 1.852.94 2.77.188.532.373 1.068.57 1.595.408 1.09.837 2.168 1.278 3.236l.426 1.04c.577 1.347 1.176 2.679 1.808 3.994l.094.194c4.087 8.491 9.38 16.437 15.806 23.567l.125.115c.072.06 2.049 2.253 4.593 4.719 18.012 17.473 42.56 28.241 69.576 28.241 27.015 0 51.564-10.769 69.575-28.238 2.544-2.466 4.522-4.658 4.594-4.718l.126-.119c6.426-7.131 11.718-15.073 15.808-23.563l.099-.214c.628-1.31 1.229-2.635 1.802-3.976l.431-1.053c.44-1.065.866-2.137 1.273-3.221.197-.536.386-1.071.576-1.61.323-.915.637-1.83.935-2.754.211-.658.411-1.319.61-1.983.244-.82.479-1.647.703-2.481.201-.736.391-1.476.575-2.215.189-.783.37-1.569.542-2.359.173-.776.339-1.554.489-2.334.153-.786.291-1.579.426-2.372.135-.779.267-1.56.379-2.343.122-.84.223-1.686.323-2.532.091-.739.186-1.479.26-2.221.094-.984.159-1.978.226-2.967.039-.614.097-1.229.127-1.846.076-1.617.123-3.243.123-4.878 0-1.544-.048-3.077-.115-4.605l-.074-1.285zm-33.232 30.774c-2.134 2.825-6.958 4.815-10.354 3.797-12.367-3.71-21.403-15.192-21.403-28.749 0-2.594.329-5.163.978-7.638.27-.743.188-1.592-.254-2.284-.156-.244-.349-.454-.566-.63-.37-.288-3.315-1.686-6.487-3.265l-16.981-8.443c-3.172-1.576-3.172-4.136 0-5.711l22.206-11.041c.871-.436 1.422-1.325 1.422-2.3l-.009-11.132c-.007-3.543 2.863-6.417 6.408-6.417h32.185l.251-.012c.138-.016 1.31 1.278 2.547 2.951s3.158 5.78 4.073 9.205c1.87 6.996 2.816 14.218 2.816 21.549-.001 18.786-6.277 36.149-16.832 50.12zm-69.143-26.209v53.008c0 3.547-2.879 6.356-6.402 5.978-16.793-1.808-32.112-8.622-44.432-18.924-2.716-2.274-1.905-4.79 1.391-6.087 13.052-5.139 22.317-17.865 22.317-32.719 0-1.2-.06-2.397-.18-3.584-.199-1.971 2.03-4.825 5.202-6.401l18.922-9.409c3.172-1.576 8.32-1.576 11.492 0l18.919 9.409c3.174 1.576 5.404 4.43 5.204 6.401-.119 1.187-.179 2.384-.179 3.584 0 14.854 9.262 27.58 22.313 32.716 3.296 1.3 4.109 3.815 1.392 6.09-12.319 10.299-27.635 17.116-44.427 18.924-3.523.379-6.401-2.431-6.401-5.978v-53.008c0-1.419-1.149-2.566-2.565-2.566-1.42 0-2.566 1.147-2.566 2.566zm-78.032-45.46c.915-3.425 2.827-7.522 4.056-9.18 1.228-1.657 5.15-2.964 8.696-2.964h26.305c3.543 0 6.413 2.873 6.41 6.417l-.01 11.132c-.003.975.552 1.864 1.423 2.3l22.205 11.04c3.172 1.576 3.172 4.135 0 5.711l-22.884 11.38c-.475.2-.888.542-1.173.99-.23.36-.36.765-.395 1.172-.057.686.646 2.867.904 4.941.155 1.247.236 2.509.236 3.778 0 13.557-9.039 25.039-21.405 28.749-3.395 1.019-8.22-.972-10.355-3.797-10.555-13.971-16.831-31.331-16.831-50.12.001-7.331.95-14.553 2.818-21.549zm144.078-17.276h-21.949c-3.543 0-6.419-2.873-6.423-6.417l-.009-11.216c-.005-3.543 2.673-5.37 5.868-3.835 9.023 4.339 17.263 10.054 24.435 16.891 2.566 2.444 1.623 4.577-1.922 4.577zm-33.516-19.513l.012 13.096c.004 3.543-2.866 6.417-6.411 6.417h-9.091c-1.419 0-2.566 1.15-2.566 2.566 0 1.417 1.147 2.566 2.566 2.566h9.096c3.543 0 6.419 2.873 6.424 6.417l.002 3.127c.003 3.543-2.566 7.698-5.74 9.274l-18.512 9.205c-3.172 1.576-8.32 1.576-11.492 0l-18.512-9.205c-3.174-1.576-5.746-5.73-5.74-9.274l.001-3.127c.001-3.543 2.878-6.417 6.421-6.417h9.308c1.416 0 2.567-1.149 2.567-2.566 0-1.416-1.151-2.566-2.567-2.566h-9.302c-3.545 0-6.415-2.873-6.411-6.417l.013-13.096c.003-3.543 2.728-7.35 6.156-8.243 7.61-1.983 15.584-3.052 23.808-3.052s16.2 1.068 23.808 3.052c3.435.893 6.155 4.7 6.162 8.243zm-65.068 1.88l-.009 11.216c-.006 3.543-2.881 6.417-6.426 6.417h-21.945c-3.545 0-4.491-2.133-1.925-4.577 7.171-6.833 15.411-12.551 24.438-16.891 3.192-1.532 5.871.292 5.867 3.835zm-55.818 108.73c-.241-.806-.471-1.61-.692-2.426-.18-.68-.354-1.359-.52-2.042l-.169-.724c-.123-.521-.245-1.041-.36-1.561-.157-.721-.309-1.441-.448-2.162-.149-.761-.282-1.522-.412-2.29-.121-.724-.243-1.444-.349-2.171-.116-.809-.213-1.623-.31-2.438-.08-.687-.168-1.369-.235-2.059-.091-.943-.153-1.893-.216-2.842-.038-.57-.091-1.135-.118-1.711-.075-1.532-.118-3.07-.118-4.612l.003-.087c.001-1.561.041-3.114.116-4.662.025-.508.075-1.002.111-1.507.07-1.072.138-2.146.243-3.211.057-.552.135-1.094.198-1.642.122-1.015.238-2.033.388-3.042.079-.517.179-1.031.263-1.544.174-1.041.35-2.078.555-3.102l.297-1.347c.237-1.093.479-2.184.752-3.258l.298-1.084c.31-1.163.63-2.322.984-3.465l.258-.799c.393-1.237.804-2.466 1.249-3.681l.191-.501c.156-.426.322-.852.492-1.275.279-.705.235 1.012.072 3.844-.099 1.701-.148 3.412-.148 5.128 0 20.685 7.168 39.736 19.132 54.838 1.496 1.893 3.067 3.716 4.709 5.477 12.636 13.544 29.441 23.15 48.349 26.706 3.481.652 3.678 2.037.294 3.09-7.994 2.478-16.37 3.759-24.792 3.759-8.133 0-16.129-1.171-23.857-3.483-3.395-1.019-8.003-4.208-10.178-7.003-5.011-6.432-9.217-13.519-12.451-21.119l-.272-.674c-.467-1.115-.912-2.24-1.336-3.378-.17-.46-.327-.924-.49-1.388-.324-.911-.638-1.826-.934-2.751-.192-.595-.37-1.199-.549-1.801zm82.472 40.588c3.299-1.294 5.884.313 5.884 3.857v16.902c0 3.544-2.879 6.363-6.404 6.031-18.322-1.727-35.139-8.676-48.947-19.353-2.801-2.168-2.159-3.353 1.327-2.717 5.168.94 10.425 1.42 15.736 1.42 11.105.002 22.133-2.104 32.404-6.14zm11.015 20.76v-16.899c0-3.544 2.582-5.15 5.881-3.856 10.271 4.032 21.297 6.138 32.4 6.138 5.314 0 10.569-.479 15.741-1.42 3.485-.636 4.124.549 1.323 2.717-13.808 10.677-30.624 17.626-48.941 19.35-3.527.333-6.404-2.486-6.404-6.03zm92.065-82.058c-.062.949-.129 1.896-.22 2.836-.064.692-.151 1.378-.234 2.067-.095.812-.193 1.623-.311 2.428-.106.73-.226 1.454-.348 2.178-.132.765-.264 1.526-.41 2.284-.142.724-.292 1.447-.451 2.168-.115.523-.238 1.04-.36 1.558l-.166.717c-.166.687-.342 1.372-.526 2.059-.215.806-.445 1.604-.684 2.403-.182.607-.36 1.219-.558 1.823-.29.912-.602 1.817-.918 2.72-.169.473-.329.946-.504 1.416-.42 1.125-.86 2.233-1.319 3.337l-.291.714c-3.233 7.598-7.436 14.682-12.445 21.113-2.177 2.795-6.782 5.987-10.179 7.003-7.729 2.312-15.725 3.483-23.86 3.483-8.421 0-16.794-1.281-24.788-3.759-3.384-1.053-3.188-2.438.296-3.09 18.904-3.556 35.711-13.165 48.346-26.706 1.643-1.761 3.215-3.584 4.709-5.477 11.966-15.102 19.134-34.153 19.134-54.838 0-1.717-.049-3.427-.147-5.128-.162-2.83-.206-4.543.075-3.832.173.429.339.855.5 1.291l.176.463c.446 1.225.863 2.466 1.258 3.713l.247.768c.36 1.153.684 2.322.997 3.493l.284 1.059c.279 1.084.522 2.181.762 3.284.098.438.2.877.291 1.322.209 1.031.384 2.074.559 3.118.084.511.185 1.018.26 1.532.153 1.009.27 2.03.389 3.051.065.545.143 1.087.197 1.636.106 1.065.175 2.14.246 3.214.032.501.083 1 .107 1.504.078 1.544.118 3.099.118 4.665l.001.084c0 1.547-.041 3.083-.114 4.612-.031.574-.082 1.144-.119 1.714z"/></svg>